<svg xmlns="http://www.w3.org/2000/svg" viewBox="0 0 420.34 89.38"><g id="Layer_2" data-name="Layer 2"><g id="Layer_1-2" data-name="Layer 1"><rect x="83.88" width="83.88" height="29.56"/><rect x="83.88" y="32.66" width="83.88" height="29.56" transform="translate(173.26 -78.39) rotate(90)"/><polygon points="67 29.56 0 29.56 0 0 83.88 0 67 29.56"/><polyline points="0 89.38 51.05 0 83.88 0 32.83 89.38"/><rect x="17.48" y="59.82" width="70.32" height="29.56"/><polyline points="111.04 89.38 87.8 89.38 121.97 29.56"/><path d="M195.55,2.61h-6.34V18h-2.9V2.61H180V0h15.56Z"/><path d="M213.76,0V18h-2.88V10.26h-9.72V18h-2.87V0h2.87V7.63h9.72V0Z"/><path d="M231.4,15.39V18H218V0h13.38V2.61h-10.5V7.68h9.69v2.58h-9.69v5.13Z"/><path d="M200.26,52.61v4.16h-19.2V53.65l12.75-16.72H181.42V32.77H200v3.69L188,52.61Z"/><path d="M206.51,35.89a12.64,12.64,0,0,1,21.61,8.92,12,12,0,0,1-3.67,8.86,12.87,12.87,0,0,1-17.94,0,12.58,12.58,0,0,1,0-17.78ZM210,50.46a7.81,7.81,0,0,0,11,0,7.66,7.66,0,0,0,2.24-5.65,7.81,7.81,0,0,0-2.24-5.7,7.74,7.74,0,0,0-11,0,7.85,7.85,0,0,0-2.24,5.7A7.7,7.7,0,0,0,210,50.46Z"/><path d="M234.66,35.89a12.64,12.64,0,0,1,21.61,8.92,12,12,0,0,1-3.67,8.86,12.87,12.87,0,0,1-17.94,0,12.58,12.58,0,0,1,0-17.78Zm3.47,14.57a7.82,7.82,0,0,0,11,0,7.7,7.7,0,0,0,2.23-5.65,7.84,7.84,0,0,0-2.23-5.7,7.75,7.75,0,0,0-11,0,7.85,7.85,0,0,0-2.24,5.7A7.7,7.7,0,0,0,238.13,50.46Z"/><path d="M288,37.18h-8V56.77h-4.87V37.18h-8V32.77H288Z"/><path d="M303.4,49.1v7.67h-4.87V49.18L289,32.77h5.37L301,44.09l6.51-11.32h5.59Z"/><path d="M326,52.76a7.09,7.09,0,0,0,4.55-1.51,7.52,7.52,0,0,0,2.54-4.51l4.73,1a11.27,11.27,0,0,1-4.12,7,12.58,12.58,0,0,1-20.31-10,12.09,12.09,0,0,1,3.65-8.9,12.93,12.93,0,0,1,16.62-1.15,11.07,11.07,0,0,1,4.16,6.76l-4.73,1.32a7.53,7.53,0,0,0-2.56-4.48,7.14,7.14,0,0,0-4.53-1.5,7.36,7.36,0,0,0-5.48,2.27,7.81,7.81,0,0,0-2.22,5.68,7.77,7.77,0,0,0,2.24,5.69A7.33,7.33,0,0,0,326,52.76Z"/><path d="M344.39,35.89A12.65,12.65,0,0,1,366,44.81a12,12,0,0,1-3.67,8.86,12.88,12.88,0,0,1-17.95,0,12,12,0,0,1-3.67-8.86A12.09,12.09,0,0,1,344.39,35.89Zm3.48,14.57a7.81,7.81,0,0,0,11,0,7.7,7.7,0,0,0,2.24-5.65,7.85,7.85,0,0,0-2.24-5.7,7.74,7.74,0,0,0-11,0,7.81,7.81,0,0,0-2.24,5.7A7.66,7.66,0,0,0,347.87,50.46Z"/><path d="M372.54,35.89a12.65,12.65,0,0,1,21.62,8.92,12,12,0,0,1-3.67,8.86,12.88,12.88,0,0,1-17.95,0,12,12,0,0,1-3.67-8.86A12.09,12.09,0,0,1,372.54,35.89ZM376,50.46a7.81,7.81,0,0,0,11,0,7.7,7.7,0,0,0,2.24-5.65,7.85,7.85,0,0,0-2.24-5.7,7.74,7.74,0,0,0-11,0,7.81,7.81,0,0,0-2.24,5.7A7.66,7.66,0,0,0,376,50.46Z"/><path d="M420.34,32.77v24h-4.09L403,41.37v15.4H398.1v-24h4.08L415.47,48.6V32.77Z"/><path d="M201.21,71V89h-2.79V77.5L192.24,89h-1.77l-6.18-11.5V89H181.5V71H184l7.33,13.62L198.72,71Z"/><path d="M207.34,73.36A9.49,9.49,0,1,1,204.62,80,9,9,0,0,1,207.34,73.36Zm2,11.4a6.55,6.55,0,0,0,9.23,0A6.49,6.49,0,0,0,220.5,80a6.56,6.56,0,0,0-1.88-4.77,6.51,6.51,0,0,0-9.23,0A6.59,6.59,0,0,0,207.53,80,6.51,6.51,0,0,0,209.39,84.76Z"/><path d="M226.78,71h6.29a10.18,10.18,0,0,1,7.24,2.52,9.14,9.14,0,0,1,0,13A10.22,10.22,0,0,1,233.07,89h-6.29Zm2.88,15.4h3.41a7.2,7.2,0,0,0,5.13-1.78,6.54,6.54,0,0,0,0-9.24,7.24,7.24,0,0,0-5.13-1.77h-3.41Z"/><path d="M269.57,89h-3.11l-1.77-4.19h-8.76L254.16,89H251L259,71h2.69Zm-6-6.82-3.25-7.66-3.25,7.66Z"/><path d="M287.3,89h-3.57l-6.42-7.17h-2.6V89h-2.88V71h8.46a6.5,6.5,0,0,1,4.47,1.5,5.38,5.38,0,0,1,.17,7.7,6.24,6.24,0,0,1-4.13,1.6Zm-12.59-9.78h5.58a3.59,3.59,0,0,0,2.39-.76,2.52,2.52,0,0,0,.92-2,2.56,2.56,0,0,0-.92-2,3.54,3.54,0,0,0-2.39-.78h-5.58Z"/><path d="M298.13,86.66a6.21,6.21,0,0,0,3.76-1.15,5.84,5.84,0,0,0,2.17-3.38l2.8.59a8.17,8.17,0,0,1-3.12,4.88,9.59,9.59,0,0,1-12.26-.94,9.38,9.38,0,0,1,6.65-16,9.26,9.26,0,0,1,5.59,1.74,8.16,8.16,0,0,1,3.14,4.71l-2.8.8a5.84,5.84,0,0,0-2.17-3.38,6.57,6.57,0,0,0-8.37.76,6.94,6.94,0,0,0,0,9.48A6.18,6.18,0,0,0,298.13,86.66Z"/><path d="M325.74,71V89h-2.87V81.27h-9.73V89h-2.87V71h2.87v7.63h9.73V71Z"/><path d="M332.86,89H330V71h2.87Z"/><path d="M353.76,71l-7.82,18h-2.77l-7.81-18h3.17l6,14.11,6-14.11Z"/><path d="M369.63,86.4V89h-13.4V71h13.38v2.61H359.1v5.08h9.7v2.58h-9.7V86.4Z"/></g></g></svg>