<svg xmlns="http://www.w3.org/2000/svg" viewBox="0 0 119.42 182.04"><defs><style>.cls-1{fill:#ff9b00;}.cls-2{fill:#ff4001;}.cls-3{fill:none;}.cls-4{fill:#fff;}</style></defs><g id="Layer_2" data-name="Layer 2"><g id="Layer_1-2" data-name="Layer 1"><rect class="cls-1" x="54.32" width="65.1" height="39.59"/><rect class="cls-1" x="48.89" y="49.17" width="112.35" height="28.72" transform="translate(168.6 -41.53) rotate(90)"/><polygon class="cls-1" points="8.56 80.12 54.32 0 10.36 0 0 0 0 119.71 59.57 119.71 59.57 80.12 8.56 80.12"/><polygon class="cls-2" points="54.32 0 54.32 39.59 90.7 39.59 90.7 65.21 59.57 119.71 59.57 80.12 8.56 80.12 54.32 0"/><line class="cls-3" x1="59.57" y1="119.71" x2="105.33" y2="39.59"/><path class="cls-2" d="M16.77,150.54v3.63H0v-2.72l11.14-14.61H.31v-3.63H16.56v3.22L6,150.54Z"/><path class="cls-2" d="M36.93,137.06H30v17.11H25.69V137.06h-7v-3.85H36.93Z"/><path class="cls-4" d="M70.73,133.21v21H67.47V140.78l-7.19,13.39H58.21L51,140.78v13.39H47.76v-21H50.7l8.54,15.86,8.58-15.86Z"/><path class="cls-4" d="M77.86,135.94a11.1,11.1,0,1,1-3.16,7.78A10.56,10.56,0,0,1,77.86,135.94Zm2.4,13.29a7.62,7.62,0,0,0,10.75,0,7.54,7.54,0,0,0,2.19-5.51A7.62,7.62,0,0,0,91,138.17a7.57,7.57,0,0,0-10.75,0,7.65,7.65,0,0,0-2.18,5.55A7.57,7.57,0,0,0,80.26,149.23Z"/><path class="cls-4" d="M100.52,133.21h7.32a11.9,11.9,0,0,1,8.44,2.92,10.67,10.67,0,0,1,0,15.12,11.9,11.9,0,0,1-8.44,2.92h-7.32Zm3.35,17.93h4a8.41,8.41,0,0,0,6-2.07,7.63,7.63,0,0,0,0-10.76,8.41,8.41,0,0,0-6-2.07h-4Z"/><path class="cls-4" d="M18.66,181.66H15.53l-1.79-4.22H4.92l-1.78,4.22H0l8-18.12h2.7Zm-6.06-6.87-3.27-7.71-3.27,7.71Z"/><path class="cls-4" d="M36.52,181.66h-3.6l-6.47-7.22H23.83v7.22H20.94V163.54h8.52A6.59,6.59,0,0,1,34,165a5.43,5.43,0,0,1,.16,7.77A6.34,6.34,0,0,1,30,174.42Zm-12.69-9.84h5.63a3.62,3.62,0,0,0,2.4-.77,2.53,2.53,0,0,0,.92-2,2.55,2.55,0,0,0-.92-2.06,3.58,3.58,0,0,0-2.4-.79H23.83Z"/><path class="cls-4" d="M47.42,179.31a6.26,6.26,0,0,0,3.78-1.16,5.93,5.93,0,0,0,2.2-3.41l2.81.59a8.21,8.21,0,0,1-3.14,4.93,9.7,9.7,0,0,1-12.35-.95,9.45,9.45,0,0,1,6.7-16.15A9.28,9.28,0,0,1,53,164.92a8.17,8.17,0,0,1,3.17,4.73l-2.81.82a5.89,5.89,0,0,0-2.2-3.41,6.59,6.59,0,0,0-8.42.77,7,7,0,0,0,0,9.55A6.2,6.2,0,0,0,47.42,179.31Z"/><path class="cls-4" d="M75.22,163.54v18.12H72.33v-7.79H62.54v7.79h-2.9V163.54h2.9v7.68h9.79v-7.68Z"/><path class="cls-4" d="M82.39,181.66H79.5V163.54h2.89Z"/><path class="cls-4" d="M103.44,163.54l-7.87,18.12H92.78l-7.87-18.12H88.1l6.06,14.2,6.06-14.2Z"/><path class="cls-4" d="M119.42,179v2.62H105.93V163.54H119.4v2.62H108.82v5.12h9.76v2.59h-9.76V179Z"/></g></g></svg>